<svg xmlns="http://www.w3.org/2000/svg" viewBox="0 0 32 32">
  <path fill="currentColor" d="M19.5 3H9.00276013C7.89666625 3 7 3.89833832 7 5.00732994V27.9926701C7 29.1012878 7.89092539 30 8.99742191 30H24.0025781C25.1057238 30 26 29.1017876 26 28.0092049V10l-6-7h-.5zM19 4H8.9955775C8.44573523 4 8 4.45526288 8 4.99545703V28.004543C8 28.5543187 8.45470893 29 8.9999602 29h15.0000796C24.5523026 29 25 28.5550537 25 28.0066023V11h-4.0020869C19.8944962 11 19 10.1134452 19 8.99408095V4zm1 .5v4.49121523C20 9.54835167 20.4506511 10 20.9967388 10h3.7032124L20 4.5zM10 16v11h13V16H10zm3 1v4h7v-4h-7zm0 5v4h7v-4h-7zm-2-5v1h1v-1h-1zm0 2v1h1v-1h-1zm0 2v1h1v-1h-1zm0 2v1h1v-1h-1zm0 2v1h1v-1h-1zm10-8v1h1v-1h-1zm0 2v1h1v-1h-1zm0 2v1h1v-1h-1zm0 2v1h1v-1h-1zm0 2v1h1v-1h-1z" fill-rule="evenodd"/>
</svg>